<?xml version="1.0" encoding="UTF-8"?>
<svg version="1.1" xmlns="http://www.w3.org/2000/svg" width="1024" height="1024">
<path d="M0 0 C337.92 0 675.84 0 1024 0 C1024 337.92 1024 675.84 1024 1024 C686.08 1024 348.16 1024 0 1024 C0 686.08 0 348.16 0 0 Z " fill="#010102" transform="translate(0,0)"/>
<path d="M0 0 C1.18110352 0.00604248 2.36220703 0.01208496 3.57910156 0.01831055 C12.79400893 0.12219547 21.72471524 0.75430209 30.8125 2.25 C32.00875 2.43304688 33.205 2.61609375 34.4375 2.8046875 C64.1838973 7.99748531 91.75626309 21.76920859 113.8125 42.25 C114.34359375 42.73726563 114.8746875 43.22453125 115.421875 43.7265625 C140.11623368 66.58718168 156.26575706 100.64657576 158.8125 134.25 C159.00279141 139.20802407 159.05748039 144.16377937 159.0625 149.125 C159.06350708 149.81530304 159.06451416 150.50560608 159.06555176 151.21682739 C159.05476529 162.16176319 158.31278078 172.57491112 155.8125 183.25 C155.507722 184.65492829 155.2030357 186.05987647 154.8984375 187.46484375 C152.58310748 197.71861854 149.26047104 207.22403717 143.8125 216.25 C142.80765117 218.58124929 141.80727753 220.91443537 140.8125 223.25 C140.1525 224.24 139.4925 225.23 138.8125 226.25 C138.1525 226.25 137.4925 226.25 136.8125 226.25 C137.14314453 227.08917969 137.14314453 227.08917969 137.48046875 227.9453125 C138.20005557 232.94009159 133.62690164 237.42446399 130.8125 241.25 C126.99182171 246.0743473 122.93289659 250.68138394 118.8125 255.25 C117.82830078 256.36181641 117.82830078 256.36181641 116.82421875 257.49609375 C102.50282747 272.77012746 83.98277861 282.33408753 64.5 289.1875 C63.4270166 289.56543701 62.3540332 289.94337402 61.24853516 290.33276367 C48.16898548 294.73989389 35.73736101 295.66249867 22.0625 295.625 C21.24747009 295.6237915 20.43244019 295.62258301 19.5927124 295.62133789 C-9.0920568 295.50628171 -34.98557406 289.12444629 -60.1875 275.25 C-60.77257324 274.93595215 -61.35764648 274.6219043 -61.96044922 274.29833984 C-83.52792926 262.70724495 -102.72014855 247.20470998 -121.1875 231.25 C-123.56109816 229.20669972 -125.93669165 227.16572957 -128.3125 225.125 C-129.19772339 224.36268066 -129.19772339 224.36268066 -130.10083008 223.58496094 C-133.55893154 220.61523751 -137.0651381 217.72288952 -140.625 214.875 C-146.60399955 210.02811871 -152.15315507 204.74892331 -157.75 199.47265625 C-160.82789058 196.57430929 -163.97230175 193.77046357 -167.17578125 191.01171875 C-169.84376945 188.67528636 -172.45254639 186.27573234 -175.0625 183.875 C-178.92767783 180.32240645 -182.79617473 176.77400253 -186.6875 173.25 C-187.4609375 172.54875 -188.234375 171.8475 -189.03125 171.125 C-191.15186245 169.21999826 -191.15186245 169.21999826 -193.46875 167.625 C-194.0359375 167.17125 -194.603125 166.7175 -195.1875 166.25 C-195.1875 165.59 -195.1875 164.93 -195.1875 164.25 C-195.78208008 163.97760498 -196.37666016 163.70520996 -196.98925781 163.42456055 C-199.13190556 162.27970512 -200.60756637 161.12355302 -202.359375 159.45703125 C-202.93703613 158.91288574 -203.51469727 158.36874023 -204.10986328 157.80810547 C-204.7129834 157.23205566 -205.31610352 156.65600586 -205.9375 156.0625 C-207.19973105 154.87285939 -208.46274532 153.6840492 -209.7265625 152.49609375 C-210.32887695 151.92874512 -210.93119141 151.36139648 -211.55175781 150.77685547 C-214.02299106 148.47012521 -216.57358663 146.26243171 -219.1328125 144.0546875 C-221.85675162 141.66217823 -224.52075784 139.20575531 -227.1875 136.75 C-231.79548901 132.51227044 -236.44405395 128.33553658 -241.1875 124.25 C-241.73792969 123.77320801 -242.28835938 123.29641602 -242.85546875 122.80517578 C-244.7557401 121.15936949 -246.65879416 119.51683186 -248.5625 117.875 C-249.18237793 117.33818604 -249.80225586 116.80137207 -250.44091797 116.24829102 C-253.61231684 113.45869142 -253.61231684 113.45869142 -257.1875 111.25 C-258.1775 111.745 -258.1775 111.745 -259.1875 112.25 C-261.95476739 111.07167969 -264.62247238 109.83586406 -267.3125 108.5 C-285.12622421 99.74939863 -300.86704156 96.5451022 -320.41796875 100.49609375 C-322.80375683 100.97325137 -325.20307721 101.39011955 -327.61328125 101.72265625 C-328.88751953 101.98369141 -328.88751953 101.98369141 -330.1875 102.25 C-330.5175 102.91 -330.8475 103.57 -331.1875 104.25 C-332.8098225 105.1480188 -334.46137681 105.9935214 -336.125 106.8125 C-344.89895937 111.489669 -351.58846454 118.14109329 -357.8125 125.81640625 C-358.26625 126.28949219 -358.72 126.76257813 -359.1875 127.25 C-359.8475 127.25 -360.5075 127.25 -361.1875 127.25 C-361.1875 128.24 -361.1875 129.23 -361.1875 130.25 C-361.8475 130.25 -362.5075 130.25 -363.1875 130.25 C-363.1875 131.24 -363.1875 132.23 -363.1875 133.25 C-363.8475 133.25 -364.5075 133.25 -365.1875 133.25 C-365.5175 134.9 -365.8475 136.55 -366.1875 138.25 C-366.8475 138.25 -367.5075 138.25 -368.1875 138.25 C-368.27 139.136875 -368.3525 140.02375 -368.4375 140.9375 C-369.10592322 145.71333549 -370.66043655 150.20128084 -372.15234375 154.7734375 C-378.68110435 176.70021838 -375.6740104 199.08628295 -365.1875 219.25 C-363.37177025 222.41718431 -361.39276976 225.34356755 -359.1875 228.25 C-358.37152344 229.36761719 -358.37152344 229.36761719 -357.5390625 230.5078125 C-341.14734581 252.38815831 -312.43399244 270.77797195 -285.23828125 274.83984375 C-258.99203023 277.42374286 -230.31022743 275.84276381 -207.16015625 261.93359375 C-206.17917969 261.37800781 -205.19820312 260.82242187 -204.1875 260.25 C-203.5275 260.58 -202.8675 260.91 -202.1875 261.25 C-223.62324859 275.1604326 -246.32438359 285.98287376 -271.1875 292.25 C-272.28360596 292.54414795 -272.28360596 292.54414795 -273.40185547 292.84423828 C-295.57608396 298.64759404 -322.97477194 299.11154816 -345.1875 293.25 C-345.99670898 293.04068848 -346.80591797 292.83137695 -347.63964844 292.61572266 C-358.30359354 289.7886768 -368.3553981 286.30756431 -378.1875 281.25 C-379.93353516 280.40888672 -379.93353516 280.40888672 -381.71484375 279.55078125 C-413.48746163 263.89153972 -437.41216744 235.0051535 -450.1875 202.25 C-463.43370405 162.91395596 -463.67497046 120.24438987 -445.31640625 82.45703125 C-438.93905785 69.62294837 -431.06768057 58.66339667 -421.1875 48.25 C-420.29289062 47.2909375 -419.39828125 46.331875 -418.4765625 45.34375 C-397.79528178 23.59049838 -368.69486379 8.58680442 -339.1875 3.25 C-337.99012207 3.00056641 -337.99012207 3.00056641 -336.76855469 2.74609375 C-327.61474682 0.98514136 -318.59924472 0.84964755 -309.3125 0.875 C-308.08512115 0.87681274 -308.08512115 0.87681274 -306.83294678 0.87866211 C-271.42824317 1.02033967 -240.65432521 12.26832093 -212.1875 33.25 C-210.67999328 34.345473 -209.1721562 35.44049147 -207.6640625 36.53515625 C-195.13236044 45.66764198 -182.86073853 55.04045896 -171.08056641 65.12573242 C-167.19453615 68.43904116 -163.21943719 71.61645941 -159.1875 74.75 C-152.93694592 79.61470413 -146.86745161 84.66155205 -140.85693359 89.81884766 C-139.11249366 91.31430055 -137.36325744 92.80399955 -135.61328125 94.29296875 C-130.34982439 98.77873228 -125.11587157 103.28302824 -120 107.9375 C-116.58928484 111.03968008 -113.0901624 113.98238274 -109.5 116.875 C-105.76876595 119.89129829 -102.36689689 123.00677805 -99.04296875 126.45703125 C-96.81095692 128.61385952 -94.43001076 130.50666406 -92 132.4375 C-87.15298998 136.33241876 -82.79758178 140.52087465 -78.45385742 144.95239258 C-75.82555757 147.62845644 -73.17838005 150.2051951 -70.3125 152.625 C-66.38914541 155.95738904 -62.80566508 159.5943631 -59.1875 163.25 C-54.99535419 167.48116552 -50.80312751 171.62214228 -46.25 175.46875 C-44.54805653 176.93861027 -42.89501116 178.43646803 -41.25 179.96875 C-40.72422363 180.45770752 -40.19844727 180.94666504 -39.65673828 181.45043945 C-38.62602119 182.41186331 -37.59814466 183.3763455 -36.57373047 184.34448242 C-33.29431375 187.39468077 -29.95477423 189.8633144 -26.1875 192.25 C-26.8475 191.59 -27.5075 190.93 -28.1875 190.25 C-28.1875 189.26 -28.1875 188.27 -28.1875 187.25 C-24.54345189 187.82842034 -21.83687039 188.83156983 -18.625 190.625 C-13.01665869 193.5342745 -7.33031198 194.91695576 -1.1875 196.25 C-0.56746094 196.45496094 0.05257813 196.65992188 0.69140625 196.87109375 C11.39036414 198.78232564 25.43166545 194.52475916 34.125 188.5 C42.62492625 181.5439379 48.53775687 171.18595423 49.8125 160.25 C50.00129004 154.58074626 49.93402952 148.92042441 49.8125 143.25 C49.79574219 142.38632812 49.77898437 141.52265625 49.76171875 140.6328125 C48.73080847 125.02188538 39.3266381 108.02354805 28.5 97.10546875 C26.8125 95.25 26.8125 95.25 26.8125 93.25 C26.11125 93.0025 25.41 92.755 24.6875 92.5 C16.70138889 89.02777778 16.70138889 89.02777778 14.8125 85.25 C13.86375 84.940625 12.915 84.63125 11.9375 84.3125 C8.96560098 83.30205433 7.75161169 82.62002539 5.8125 80.25 C6.1425 79.59 6.4725 78.93 6.8125 78.25 C-12.03998696 88.20284926 -28.84226112 100.63138911 -45.1875 114.25 C-46.88753118 115.65593296 -48.59431888 117.05380672 -50.3125 118.4375 C-51.24449219 119.20126953 -51.24449219 119.20126953 -52.1953125 119.98046875 C-54.98343043 121.75721057 -56.88086402 122.71463989 -60.1875 123.25 C-63.26229148 122.10842205 -65.85160261 120.38855656 -68.5625 118.5625 C-69.29855469 118.10166016 -70.03460937 117.64082031 -70.79296875 117.16601562 C-74.75063759 114.5997721 -74.75063759 114.5997721 -76.1875 113.25 C-76.1875 112.26 -76.1875 111.27 -76.1875 110.25 C-77.29591553 110.25 -78.40322502 110.3295143 -79.50927734 110.40185547 C-82.57086598 110.22826311 -83.60949952 109.62577881 -86.0390625 107.8203125 C-90.05862873 104.98619455 -94.16123953 102.41873196 -98.3984375 99.9296875 C-99.05044128 99.5454512 -99.70244507 99.1612149 -100.37420654 98.76533508 C-101.7362877 97.9632373 -103.09878405 97.16184419 -104.46166992 96.3611145 C-110.71718201 92.68041262 -116.95092547 88.96266748 -123.1875 85.25 C-124.2899707 84.59435059 -125.39244141 83.93870117 -126.52832031 83.26318359 C-129.25863037 81.6295615 -131.97560702 79.97645801 -134.6875 78.3125 C-135.46915527 77.84763184 -136.25081055 77.38276367 -137.05615234 76.90380859 C-139.15625 75.59765625 -139.15625 75.59765625 -142.1875 73.25 C-142.1875 71.93 -142.1875 70.61 -142.1875 69.25 C-139.91208784 67.07571727 -137.6596165 65.18173991 -135.1875 63.25 C-133.30911074 61.73335475 -131.43428773 60.21228514 -129.5625 58.6875 C-128.21285156 57.60275391 -128.21285156 57.60275391 -126.8359375 56.49609375 C-124.15529461 54.29152895 -124.15529461 54.29152895 -121.7734375 51.79296875 C-118.84524825 48.91343521 -115.75774595 46.52860284 -112.4375 44.125 C-111.4628479 43.41657959 -111.4628479 43.41657959 -110.46850586 42.69384766 C-84.64701276 24.11860521 -56.80473494 8.01373198 -25.1875 2.25 C-24.31875244 2.07936035 -23.45000488 1.9087207 -22.55493164 1.73291016 C-14.98564832 0.33245892 -7.6885029 -0.06357333 0 0 Z " fill="#3D75DD" transform="translate(663.1875,275.75)"/>
<path d="M0 0 C1.18110352 0.00604248 2.36220703 0.01208496 3.57910156 0.01831055 C12.79400893 0.12219547 21.72471524 0.75430209 30.8125 2.25 C32.00875 2.43304688 33.205 2.61609375 34.4375 2.8046875 C64.1838973 7.99748531 91.75626309 21.76920859 113.8125 42.25 C114.34359375 42.73726563 114.8746875 43.22453125 115.421875 43.7265625 C140.07639446 66.55030081 156.34673783 100.67251732 158.8125 134.25 C158.95535312 138.61023757 158.99832481 142.9666227 158.99780273 147.32910156 C158.99997297 149.34982914 159.01813516 151.36999468 159.03710938 153.390625 C159.05007284 162.22306741 158.30924675 170.55106052 156.8125 179.25 C156.1525 178.92 155.4925 178.59 154.8125 178.25 C154.97492188 177.32832031 155.13734375 176.40664063 155.3046875 175.45703125 C156.04011818 170.29732233 155.95799293 165.13928984 155.9375 159.9375 C155.94136719 158.93654297 155.94523437 157.93558594 155.94921875 156.90429688 C155.94792969 155.94974609 155.94664062 154.99519531 155.9453125 154.01171875 C155.94418457 153.14506592 155.94305664 152.27841309 155.94189453 151.38549805 C155.94942251 149.19692935 155.94942251 149.19692935 154.8125 147.25 C153.0957001 150.21878935 152.30388562 153.14184829 151.57080078 156.47802734 C148.72617025 169.38012488 143.67332967 182.51741212 135.8125 193.25 C135.1525 193.58 134.4925 193.91 133.8125 194.25 C134.4725 192.6 135.1325 190.95 135.8125 189.25 C133.8325 190.9 131.8525 192.55 129.8125 194.25 C130.1425 194.91 130.4725 195.57 130.8125 196.25 C130.38710938 196.66507813 129.96171875 197.08015625 129.5234375 197.5078125 C127.74496862 199.31876482 126.09228833 201.20065339 124.4375 203.125 C122.33677017 205.55578081 120.21845094 207.86593202 117.875 210.0625 C115.46949357 212.11271081 115.46949357 212.11271081 115.8125 215.25 C114.4925 215.58 113.1725 215.91 111.8125 216.25 C111.8125 216.91 111.8125 217.57 111.8125 218.25 C108.8125 220.25 108.8125 220.25 104.8125 220.25 C104.8125 220.91 104.8125 221.57 104.8125 222.25 C99.87922424 225.27050435 95.22546883 227.30960935 89.6875 228.9375 C88.99785156 229.14955078 88.30820312 229.36160156 87.59765625 229.58007812 C68.04514574 235.50564775 43.5371656 234.86334617 24.8125 226.25 C23.8225 225.92 22.8325 225.59 21.8125 225.25 C21.8125 224.59 21.8125 223.93 21.8125 223.25 C20.45125 223.064375 20.45125 223.064375 19.0625 222.875 C16.22279677 222.32890323 14.28659409 221.67736197 11.8125 220.25 C11.8125 219.59 11.8125 218.93 11.8125 218.25 C11.19503906 218.10304688 10.57757812 217.95609375 9.94140625 217.8046875 C1.89595022 215.67392746 -4.31406958 212.14002204 -10.1875 206.25 C-12.28739652 205.07425289 -12.28739652 205.07425289 -14.1875 204.25 C-14.1875 203.59 -14.1875 202.93 -14.1875 202.25 C-14.744375 202.188125 -15.30125 202.12625 -15.875 202.0625 C-19.20448789 200.89267993 -20.82318181 198.84498338 -23.1875 196.25 C-23.89519531 195.47849609 -23.89519531 195.47849609 -24.6171875 194.69140625 C-28.1875 190.64706921 -28.1875 190.64706921 -28.1875 187.25 C-24.54345189 187.82842034 -21.83687039 188.83156983 -18.625 190.625 C-13.01665869 193.5342745 -7.33031198 194.91695576 -1.1875 196.25 C-0.25744141 196.55744141 -0.25744141 196.55744141 0.69140625 196.87109375 C11.39036414 198.78232564 25.43166545 194.52475916 34.125 188.5 C42.62492625 181.5439379 48.53775687 171.18595423 49.8125 160.25 C50.00129004 154.58074626 49.93402952 148.92042441 49.8125 143.25 C49.79574219 142.38632812 49.77898437 141.52265625 49.76171875 140.6328125 C48.73080847 125.02188538 39.3266381 108.02354805 28.5 97.10546875 C26.8125 95.25 26.8125 95.25 26.8125 93.25 C26.11125 93.0025 25.41 92.755 24.6875 92.5 C16.70138889 89.02777778 16.70138889 89.02777778 14.8125 85.25 C13.86375 84.940625 12.915 84.63125 11.9375 84.3125 C8.96560098 83.30205433 7.75161169 82.62002539 5.8125 80.25 C6.1425 79.59 6.4725 78.93 6.8125 78.25 C-12.03998696 88.20284926 -28.84226112 100.63138911 -45.1875 114.25 C-46.88753118 115.65593296 -48.59431888 117.05380672 -50.3125 118.4375 C-50.93382812 118.94667969 -51.55515625 119.45585937 -52.1953125 119.98046875 C-54.98343043 121.75721057 -56.88086402 122.71463989 -60.1875 123.25 C-63.26229148 122.10842205 -65.85160261 120.38855656 -68.5625 118.5625 C-69.29855469 118.10166016 -70.03460937 117.64082031 -70.79296875 117.16601562 C-74.75063759 114.5997721 -74.75063759 114.5997721 -76.1875 113.25 C-76.1875 112.26 -76.1875 111.27 -76.1875 110.25 C-77.29591553 110.25 -78.40322502 110.3295143 -79.50927734 110.40185547 C-82.57086598 110.22826311 -83.60949952 109.62577881 -86.0390625 107.8203125 C-90.05862873 104.98619455 -94.16123953 102.41873196 -98.3984375 99.9296875 C-99.05044128 99.5454512 -99.70244507 99.1612149 -100.37420654 98.76533508 C-101.7362877 97.9632373 -103.09878405 97.16184419 -104.46166992 96.3611145 C-110.71718201 92.68041262 -116.95092547 88.96266748 -123.1875 85.25 C-124.2899707 84.59435059 -125.39244141 83.93870117 -126.52832031 83.26318359 C-129.25863037 81.6295615 -131.97560702 79.97645801 -134.6875 78.3125 C-135.46915527 77.84763184 -136.25081055 77.38276367 -137.05615234 76.90380859 C-139.15625 75.59765625 -139.15625 75.59765625 -142.1875 73.25 C-142.1875 71.93 -142.1875 70.61 -142.1875 69.25 C-139.91208784 67.07571727 -137.6596165 65.18173991 -135.1875 63.25 C-133.30911074 61.73335475 -131.43428773 60.21228514 -129.5625 58.6875 C-128.66273438 57.96433594 -127.76296875 57.24117188 -126.8359375 56.49609375 C-124.15529461 54.29152895 -124.15529461 54.29152895 -121.7734375 51.79296875 C-118.84524825 48.91343521 -115.75774595 46.52860284 -112.4375 44.125 C-111.78773193 43.65271973 -111.13796387 43.18043945 -110.46850586 42.69384766 C-84.64701276 24.11860521 -56.80473494 8.01373198 -25.1875 2.25 C-24.31875244 2.07936035 -23.45000488 1.9087207 -22.55493164 1.73291016 C-14.98564832 0.33245892 -7.6885029 -0.06357333 0 0 Z " fill="#6120AF" transform="translate(663.1875,275.75)"/>
<path d="M0 0 C1.18110352 0.00604248 2.36220703 0.01208496 3.57910156 0.01831055 C12.79400893 0.12219547 21.72471524 0.75430209 30.8125 2.25 C32.00875 2.43304688 33.205 2.61609375 34.4375 2.8046875 C64.1838973 7.99748531 91.75626309 21.76920859 113.8125 42.25 C114.34359375 42.73726563 114.8746875 43.22453125 115.421875 43.7265625 C136.77188547 63.49117616 155.41303972 94.91470196 156.984375 124.484375 C156.99756401 127.08261038 156.95285397 129.65605064 156.8125 132.25 C156.1525 132.58 155.4925 132.91 154.8125 133.25 C154.42320312 132.01507813 154.03390625 130.78015625 153.6328125 129.5078125 C148.14030983 112.65665345 140.93400349 97.37027905 128.8125 84.25 C128.20664062 83.58742188 127.60078125 82.92484375 126.9765625 82.2421875 C113.28843151 67.93468406 95.2733499 60.71483205 75.6328125 60.01171875 C63.13675313 59.76867291 51.79474559 60.64214695 39.8125 64.25 C38.74225586 64.57145996 38.74225586 64.57145996 37.65039062 64.89941406 C26.80914319 68.25736581 16.79885552 72.90096378 6.8125 78.25 C6.17521973 78.58338379 5.53793945 78.91676758 4.88134766 79.26025391 C-13.29134477 88.79157977 -29.46669034 101.15165429 -45.1875 114.25 C-46.88753118 115.65593296 -48.59431888 117.05380672 -50.3125 118.4375 C-50.93382812 118.94667969 -51.55515625 119.45585937 -52.1953125 119.98046875 C-54.98343043 121.75721057 -56.88086402 122.71463989 -60.1875 123.25 C-63.26229148 122.10842205 -65.85160261 120.38855656 -68.5625 118.5625 C-69.29855469 118.10166016 -70.03460937 117.64082031 -70.79296875 117.16601562 C-74.75063759 114.5997721 -74.75063759 114.5997721 -76.1875 113.25 C-76.1875 112.26 -76.1875 111.27 -76.1875 110.25 C-77.29591553 110.25 -78.40322502 110.3295143 -79.50927734 110.40185547 C-82.57086598 110.22826311 -83.60949952 109.62577881 -86.0390625 107.8203125 C-90.05862873 104.98619455 -94.16123953 102.41873196 -98.3984375 99.9296875 C-99.05044128 99.5454512 -99.70244507 99.1612149 -100.37420654 98.76533508 C-101.7362877 97.9632373 -103.09878405 97.16184419 -104.46166992 96.3611145 C-110.71718201 92.68041262 -116.95092547 88.96266748 -123.1875 85.25 C-124.2899707 84.59435059 -125.39244141 83.93870117 -126.52832031 83.26318359 C-129.25863037 81.6295615 -131.97560702 79.97645801 -134.6875 78.3125 C-135.46915527 77.84763184 -136.25081055 77.38276367 -137.05615234 76.90380859 C-139.15625 75.59765625 -139.15625 75.59765625 -142.1875 73.25 C-142.1875 71.93 -142.1875 70.61 -142.1875 69.25 C-139.91208784 67.07571727 -137.6596165 65.18173991 -135.1875 63.25 C-133.30911074 61.73335475 -131.43428773 60.21228514 -129.5625 58.6875 C-128.66273438 57.96433594 -127.76296875 57.24117188 -126.8359375 56.49609375 C-124.15529461 54.29152895 -124.15529461 54.29152895 -121.7734375 51.79296875 C-118.84524825 48.91343521 -115.75774595 46.52860284 -112.4375 44.125 C-111.78773193 43.65271973 -111.13796387 43.18043945 -110.46850586 42.69384766 C-84.64701276 24.11860521 -56.80473494 8.01373198 -25.1875 2.25 C-24.31875244 2.07936035 -23.45000488 1.9087207 -22.55493164 1.73291016 C-14.98564832 0.33245892 -7.6885029 -0.06357333 0 0 Z " fill="#7870EE" transform="translate(663.1875,275.75)"/>
<path d="M0 0 C0.66 0.33 1.32 0.66 2 1 C1.7834375 1.79019531 1.566875 2.58039063 1.34375 3.39453125 C-2.58937661 19.32733579 -2.07265599 34.43072938 3 50 C3.21430664 50.67691895 3.42861328 51.35383789 3.64941406 52.05126953 C9.57845348 70.41230498 20.13272108 84.97441631 37.078125 94.7578125 C42.07644804 96.88276802 45.44319268 97.5743561 50.62109375 95.6640625 C51.90345408 95.00386889 53.17529466 94.32295509 54.4375 93.625 C55.12851807 93.25995361 55.81953613 92.89490723 56.53149414 92.51879883 C58.69869755 91.36513297 60.84957676 90.18459674 63 89 C64.33317599 88.28225974 65.66650562 87.56480479 67 86.84765625 C83.32630989 77.95711149 98.49373686 67.60987838 113 56 C115.5 54.125 115.5 54.125 118 53 C122.38152042 54.23465524 125.62929407 56.82359982 129.125 59.625 C130.28684135 60.53762958 131.44961504 61.44907338 132.61328125 62.359375 C133.18771973 62.80990234 133.7621582 63.26042969 134.35400391 63.72460938 C136.63672213 65.49336049 138.96922477 67.18755823 141.3125 68.875 C145.83224568 72.13525196 150.29740381 75.46161548 154.75 78.8125 C174.83414087 94.19870693 174.83414087 94.19870693 196 108 C197.98 106.515 197.98 106.515 200 105 C198.51402108 108.63418757 196.55576954 110.45113342 193.5 112.875 C192.51515625 113.65875 191.5303125 114.4425 190.515625 115.25 C189.34408464 116.16709431 188.17218187 117.08372578 187 118 C186.32775391 118.52980469 185.65550781 119.05960937 184.96289062 119.60546875 C176.9573288 125.91463109 168.89754699 132.14610588 160.6875 138.1875 C160.08389648 138.63270996 159.48029297 139.07791992 158.85839844 139.53662109 C153.43533769 143.49394818 148.20003683 146.42283562 142 149 C140.94941406 149.47179687 139.89882813 149.94359375 138.81640625 150.4296875 C120.96522579 158.35878326 104.20231644 162.36513327 84.5625 162.25 C82.58926758 162.26160156 82.58926758 162.26160156 80.57617188 162.2734375 C47.6353108 162.20824035 20.13685796 146.58515941 -3 124 C-5.16073773 121.76586142 -7.12115301 119.4744469 -9 117 C-9.56074219 116.27683594 -10.12148438 115.55367188 -10.69921875 114.80859375 C-24.36331559 96.34279693 -29.76107113 73.25190938 -26.66748047 50.56103516 C-24.91495015 41.03076307 -22.3329727 30.6659454 -18 22 C-17.34 22 -16.68 22 -16 22 C-16 21.01 -16 20.02 -16 19 C-15.34 19 -14.68 19 -14 19 C-14 18.01 -14 17.02 -14 16 C-13.34 16 -12.68 16 -12 16 C-12 15.01 -12 14.02 -12 13 C-11.34 13 -10.68 13 -10 13 C-9.74347656 12.41476562 -9.48695313 11.82953125 -9.22265625 11.2265625 C-7.89437838 8.80765392 -6.43475199 7.26801128 -4.4375 5.375 C-1.85984611 2.95478041 -1.85984611 2.95478041 0 0 Z " fill="#0A1979" transform="translate(314,390)"/>
<path d="M0 0 C0.66 0.33 1.32 0.66 2 1 C-3.30111913 5.88832706 -8.5561466 10.61811296 -14.50390625 14.7109375 C-16.29519596 16.03177723 -16.29519596 16.03177723 -17 19 C-8.65363311 24.14880022 -0.2908407 29.26924667 8.09326172 34.35638428 C9.92054132 35.46513337 11.74738496 36.57459858 13.57421875 37.68408203 C21.13168758 42.27182192 28.70460346 46.83220629 36.3125 51.3359375 C39 53 39 53 41.21484375 54.71484375 C43.58600897 56.42187516 45.13700618 56.22023029 48 56 C48.99 56 49.98 56 51 56 C50.34 56.99 49.68 57.98 49 59 C51.62042843 60.67394001 54.24705905 62.3378835 56.875 64 C57.62136719 64.47695313 58.36773438 64.95390625 59.13671875 65.4453125 C59.85214844 65.89648438 60.56757812 66.34765625 61.3046875 66.8125 C61.96452637 67.23144531 62.62436523 67.65039062 63.30419922 68.08203125 C64.97175384 69.15868219 64.97175384 69.15868219 67 69 C67.66 68.34 68.32 67.68 69 67 C70.18335938 66.54560547 70.18335938 66.54560547 71.390625 66.08203125 C74.15337112 64.9364015 75.61105401 63.75131773 77.75 61.6875 C93.52616224 47.26730542 112.57592947 33.10503306 132 24 C132.66 24.33 133.32 24.66 134 25 C133.01 26.485 133.01 26.485 132 28 C136.2637281 30.35910353 136.2637281 30.35910353 141 31 C141 31.99 141 32.98 141 34 C141.70125 34.2475 142.4025 34.495 143.125 34.75 C158.7138814 41.52777452 166.85361689 59.11074192 173 74 C175.8157325 82.04495 176.09808608 90.13386964 176.1875 98.5625 C176.20055176 99.27067871 176.21360352 99.97885742 176.22705078 100.70849609 C176.24679707 112.88631526 171.22991745 124.50233668 162.828125 133.32421875 C152.99455079 142.33832844 139.08835969 145.45840873 126 145 C123.53702429 144.46347459 121.37277006 143.78583224 119.0625 142.7890625 C116.92655347 141.88192245 116.92655347 141.88192245 114.2109375 141.62109375 C110.3145752 140.86741783 107.10141901 139.27005908 103.625 137.4375 C102.98433594 137.10814453 102.34367188 136.77878906 101.68359375 136.43945312 C100.11861368 135.63360518 98.55875979 134.81781507 97 134 C97.99 135.98 98.98 137.96 100 140 C96.03913508 138.32720753 92.97800609 135.64627907 89.75 132.875 C88.88338745 132.13685059 88.88338745 132.13685059 87.99926758 131.38378906 C84.08776913 128.01997699 80.39345545 124.50893543 76.80078125 120.8046875 C75.05921138 119.05933982 73.25642884 117.46728293 71.375 115.875 C66.71532887 111.87836508 62.46427425 107.49028586 58.1496582 103.13012695 C54.4629887 99.41958585 50.70611375 95.87597914 46.7109375 92.49609375 C44.9414749 90.94882394 43.32025552 89.31524692 41.6875 87.625 C37.94074705 83.8010828 33.791883 80.53912329 29.625 77.1875 C27.44676601 75.37230501 25.46318537 73.5386925 23.5 71.5 C19.92684921 67.79953979 15.96083674 64.67369631 11.95703125 61.453125 C8.87350998 58.89506509 5.93037691 56.22967266 3 53.5 C-1.65065942 49.17305411 -6.45508588 45.10869527 -11.40625 41.125 C-13.89797798 39.08358431 -16.29839744 36.97251053 -18.6875 34.8125 C-22.61137351 31.27818072 -26.71472879 28.08259291 -31 25 C-30.29875 24.44570313 -29.5975 23.89140625 -28.875 23.3203125 C-26.41292781 21.33325967 -23.99760177 19.30324909 -21.59643555 17.2434082 C-14.58809323 11.23610454 -7.36742481 5.55872805 0 0 Z " fill="#010103" transform="translate(538,329)"/>
<path d="M0 0 C5.90005561 5.29362591 9.53785768 11.82349209 10.546875 19.72265625 C10.83390397 30.2304125 9.06149456 39.36889242 2.16015625 47.5078125 C-6.87343743 56.45420933 -17.03147694 59.41037143 -29.48828125 59.82421875 C-40.25967007 59.72108843 -49.95292193 57.02384488 -57.86328125 49.51171875 C-58.41628906 48.98707031 -58.96929688 48.46242188 -59.5390625 47.921875 C-66.72010096 40.34881955 -68.50246583 31.91539996 -68.40405273 21.7722168 C-68.12836682 15.43567115 -66.59496555 10.70569156 -62.86328125 5.51171875 C-62.36699219 4.79628906 -61.87070312 4.08085938 -61.359375 3.34375 C-55.9852838 -3.55839605 -47.76548485 -8.54774748 -39.13671875 -10.23828125 C-24.48967814 -11.84895238 -11.59324599 -9.26001409 0 0 Z " fill="#F9F9F9" transform="translate(784.86328125,650.48828125)"/>
<path d="M0 0 C1.58876496 0.02302119 3.17767543 0.03874756 4.76660156 0.04296875 C25.2838945 0.1415385 45.19910886 8.62172854 60.56103516 22.03710938 C62.02669922 23.19919922 62.02669922 23.19919922 63.52197266 24.38476562 C66.71414213 27.04254528 69.19777705 30.03828199 71.68603516 33.34960938 C72.11835449 33.91703857 72.55067383 34.48446777 72.99609375 35.0690918 C76.09334087 39.21426639 78.51624746 43.29691971 80.56103516 48.03710938 C79.30866767 42.08670726 77.40430142 37.40909041 74.37353516 32.16210938 C73.02062 29.80881534 71.76735119 27.4735699 70.56103516 25.03710938 C70.89103516 24.37710937 71.22103516 23.71710938 71.56103516 23.03710938 C83.94588217 42.55262589 94.36681758 64.49035643 93.56103516 88.03710938 C92.57103516 88.53210938 92.57103516 88.53210938 91.56103516 89.03710938 C91.17173828 87.8021875 90.78244141 86.56726563 90.38134766 85.29492188 C84.88884499 68.44376283 77.68253864 53.15738843 65.56103516 40.03710938 C64.95517578 39.37453125 64.34931641 38.71195312 63.72509766 38.02929688 C50.03696666 23.72179344 32.02188505 16.50194143 12.38134766 15.79882812 C-0.11471172 15.55578229 -11.45671926 16.42925633 -23.43896484 20.03710938 C-24.15246094 20.25141602 -24.86595703 20.46572266 -25.60107422 20.68652344 C-36.44232165 24.04447519 -46.45260932 28.68807315 -56.43896484 34.03710938 C-57.07624512 34.37049316 -57.71352539 34.70387695 -58.37011719 35.04736328 C-76.54280962 44.57868915 -92.71815518 56.93876367 -108.43896484 70.03710938 C-110.13899602 71.44304233 -111.84578372 72.84091609 -113.56396484 74.22460938 C-114.18529297 74.73378906 -114.80662109 75.24296875 -115.44677734 75.76757812 C-118.23489527 77.54431994 -120.13232886 78.50174926 -123.43896484 79.03710938 C-126.51375633 77.89553143 -129.10306745 76.17566594 -131.81396484 74.34960938 C-132.55001953 73.88876953 -133.28607422 73.42792969 -134.04443359 72.953125 C-138.00210243 70.38688148 -138.00210243 70.38688148 -139.43896484 69.03710938 C-139.43896484 66.03710938 -139.43896484 66.03710938 -138.15380859 64.35351562 C-134.72321774 60.96816333 -131.56992819 58.37592807 -127.25537109 56.12695312 C-124.32723457 54.37007121 -121.9316083 52.04402862 -119.40380859 49.76367188 C-114.61093703 45.55204319 -109.17633654 42.19447024 -103.86083984 38.68945312 C-101.32683589 36.96060849 -98.8893255 35.1323052 -96.43896484 33.28710938 C-78.87654093 20.51002089 -58.89990478 10.48923821 -37.87255859 4.97460938 C-34.50512444 4.12554361 -34.50512444 4.12554361 -31.64208984 2.91601562 C-29.10298509 1.9030749 -27.14786478 1.96389586 -24.43896484 2.03710938 C-23.77896484 1.70710938 -23.11896484 1.37710937 -22.43896484 1.03710938 C-15.25583327 -0.91318639 -7.37360114 -0.11166081 0 0 Z " fill="#B478EF" transform="translate(726.43896484375,319.962890625)"/>
<path d="M0 0 C0.66 0.33 1.32 0.66 2 1 C1.7834375 1.79019531 1.566875 2.58039063 1.34375 3.39453125 C-2.58937661 19.32733579 -2.07265599 34.43072938 3 50 C3.21430664 50.67691895 3.42861328 51.35383789 3.64941406 52.05126953 C10.01911081 71.77693157 21.52031369 86.21831419 40 96 C41.485 96.99 41.485 96.99 43 98 C41.85546875 99.48828125 41.85546875 99.48828125 40 101 C37.30078125 101.29296875 37.30078125 101.29296875 34.3125 101.1875 C33.31863281 101.16042969 32.32476562 101.13335937 31.30078125 101.10546875 C30.54152344 101.07066406 29.78226562 101.03585937 29 101 C29.33 101.99 29.66 102.98 30 104 C27.18938194 104.96416024 24.37670402 105.92140841 21.5625 106.875 C20.77939453 107.14441406 19.99628906 107.41382813 19.18945312 107.69140625 C11.65531646 110.23378981 4.45453083 112.30929956 -3.5625 112.125 C-4.59503906 112.10695313 -5.62757813 112.08890625 -6.69140625 112.0703125 C-7.45324219 112.04710937 -8.21507812 112.02390625 -9 112 C-9.33 112.99 -9.66 113.98 -10 115 C-13.36859048 111.0900289 -15.72587898 107.0907335 -18 102.5 C-18.34812744 101.7994751 -18.69625488 101.0989502 -19.05493164 100.37719727 C-30.89368463 75.9152457 -28.43124825 51.12955171 -19.83203125 26.22265625 C-19 24 -19 24 -18 22 C-17.34 22 -16.68 22 -16 22 C-16 21.01 -16 20.02 -16 19 C-15.34 19 -14.68 19 -14 19 C-14 18.01 -14 17.02 -14 16 C-13.34 16 -12.68 16 -12 16 C-12 15.01 -12 14.02 -12 13 C-11.34 13 -10.68 13 -10 13 C-9.74347656 12.41476562 -9.48695313 11.82953125 -9.22265625 11.2265625 C-7.89437838 8.80765392 -6.43475199 7.26801128 -4.4375 5.375 C-1.85984611 2.95478041 -1.85984611 2.95478041 0 0 Z " fill="#001B64" transform="translate(314,390)"/>
<path d="M0 0 C15 0 15 0 18.37109375 2.859375 C19.46826172 4.72509766 19.46826172 4.72509766 20.4375 6.75 C21.21942577 8.12795976 22.00198686 9.50555918 22.78515625 10.8828125 C23.1527002 11.57536133 23.52024414 12.26791016 23.89892578 12.98144531 C25.54390031 15.99711036 27.44414506 18.78363181 29.375 21.625 C29.98085938 22.54539062 30.58671875 23.46578125 31.2109375 24.4140625 C33.03068969 27.04435933 34.97324063 29.52681786 37 32 C41.57570029 25.56068667 46.00767956 19.03535766 50.35888672 12.44311523 C51.16455334 11.2261722 51.98541196 10.01914787 52.82128906 8.82275391 C54.05310541 7.02277112 54.05310541 7.02277112 54.88964844 4.98583984 C55.8671875 3.04296875 55.8671875 3.04296875 59 0 C63.95 0 68.9 0 74 0 C74 22.44 74 44.88 74 68 C69.05 68 64.1 68 59 68 C58.67 53.81 58.34 39.62 58 25 C54.885625 29.74375 51.77125 34.4875 48.5625 39.375 C47.57967041 40.8707959 46.59684082 42.3665918 45.58422852 43.90771484 C44.80736815 45.09206581 44.03058852 46.27646974 43.25390625 47.4609375 C42.84877808 48.07686768 42.4436499 48.69279785 42.02624512 49.32739258 C39.8817752 52.58660315 39.8817752 52.58660315 38 56 C37.34 56 36.68 56 36 56 C34.42807794 53.88667231 32.98444165 51.77465727 31.5625 49.5625 C31.18673828 48.98951172 30.81097656 48.41652344 30.42382812 47.82617188 C28.93993414 45.55682529 27.47104847 43.27769438 26 41 C22.37 35.39 18.74 29.78 15 24 C14.67 38.19 14.34 52.38 14 67 C9.38 67 4.76 67 0 67 C0 44.89 0 22.78 0 0 Z " fill="#F6F6F7" transform="translate(228,641)"/>
<path d="M0 0 C3.50258086 1.73894001 6.48302757 3.87997043 9.58203125 6.25 C10.17951172 6.68441406 10.77699219 7.11882812 11.39257812 7.56640625 C13.1015625 8.8671875 13.1015625 8.8671875 15.76953125 11.375 C15.76953125 12.695 15.76953125 14.015 15.76953125 15.375 C13.76409907 17.24611196 11.87719372 18.75208912 9.64453125 20.3125 C8.98291992 20.78486084 8.32130859 21.25722168 7.63964844 21.74389648 C-25.67222707 45.02806277 -76.06355611 73.99869675 -118.23046875 72.375 C-122.52610289 69.97767603 -126.08370847 67.16962269 -129.23046875 63.375 C-129.36328125 60.71484375 -129.36328125 60.71484375 -129.23046875 58.375 C-128.27269531 58.28863281 -127.31492187 58.20226562 -126.328125 58.11328125 C-114.15817063 56.87822309 -102.54450375 54.120304 -91.23046875 49.375 C-91.23046875 48.715 -91.23046875 48.055 -91.23046875 47.375 C-84.79546875 46.88 -84.79546875 46.88 -78.23046875 46.375 C-78.23046875 45.715 -78.23046875 45.055 -78.23046875 44.375 C-76.98910156 44.00117188 -75.74773437 43.62734375 -74.46875 43.2421875 C-68.48480989 41.24014312 -62.99707054 38.42393233 -57.41796875 35.5 C-56.32718018 34.92991211 -55.2363916 34.35982422 -54.11254883 33.77246094 C-38.29431524 25.36834004 -23.5461684 15.43088298 -9.5703125 4.24609375 C-3.15495481 -0.88405038 -3.15495481 -0.88405038 0 0 Z " fill="#02258C" transform="translate(434.23046875,443.625)"/>
<path d="M0 0 C5.94 0 11.88 0 18 0 C18.93199219 2.17851563 19.86398437 4.35703125 20.82421875 6.6015625 C21.7726843 8.81738588 22.72138858 11.03310689 23.6701355 13.24880981 C24.34699061 14.829695 25.02368804 16.4106477 25.70022583 17.9916687 C29.40564427 26.64983139 33.12252261 35.3024997 36.890625 43.93359375 C37.19341873 44.62807617 37.49621246 45.32255859 37.80818176 46.03808594 C39.24685894 49.33740914 40.68910654 52.63508498 42.13745117 55.93017578 C42.64767822 57.09919434 43.15790527 58.26821289 43.68359375 59.47265625 C44.13275146 60.49625244 44.58190918 61.51984863 45.04467773 62.57446289 C46 65 46 65 46 67 C41.05 67 36.1 67 31 67 C26 55.25 26 55.25 26 53 C9.665 53.495 9.665 53.495 -7 54 C-8.65 57.96 -10.3 61.92 -12 66 C-13 67 -13 67 -16.16015625 67.09765625 C-17.44792969 67.08605469 -18.73570312 67.07445312 -20.0625 67.0625 C-21.99802734 67.04896484 -21.99802734 67.04896484 -23.97265625 67.03515625 C-24.97167969 67.02355469 -25.97070312 67.01195312 -27 67 C-26.29507696 62.09980581 -24.40393651 57.81051597 -22.5 53.28125 C-22.14791977 52.4338475 -21.79583954 51.58644501 -21.43309021 50.71336365 C-20.2932846 47.9736507 -19.14682438 45.23678145 -18 42.5 C-17.22115094 40.6323615 -16.44258651 38.76460428 -15.66430664 36.89672852 C-10.51964391 24.56432671 -5.31035014 12.26208124 0 0 Z " fill="#F7F7F7" transform="translate(587,642)"/>
<path d="M0 0 C4.95 0 9.9 0 15 0 C15 8.58 15 17.16 15 26 C25.56 26 36.12 26 47 26 C47 17.75 47 9.5 47 1 C51.62 1 56.24 1 61 1 C61 22.78 61 44.56 61 67 C56.38 67 51.76 67 47 67 C47 57.76 47 48.52 47 39 C36.44 39 25.88 39 15 39 C15 48.57 15 58.14 15 68 C10.05 68 5.1 68 0 68 C0 45.56 0 23.12 0 0 Z " fill="#F7F7F7" transform="translate(480,641)"/>
<path d="M0 0 C0.85049423 0.00222061 1.70098846 0.00444122 2.57725525 0.00672913 C4.01863609 0.00684242 4.01863609 0.00684242 5.48913574 0.00695801 C7.05630592 0.01469994 7.05630592 0.01469994 8.65513611 0.02259827 C9.71913132 0.02401321 10.78312653 0.02542816 11.87936401 0.02688599 C15.29293069 0.03250388 18.70643286 0.04505941 22.11997986 0.05775452 C24.42792162 0.06276721 26.73586441 0.06733052 29.04380798 0.07142639 C34.71505412 0.08247912 40.38626238 0.09923465 46.05747986 0.12025452 C45.57523257 4.25380274 45.06862505 8.07567376 44.05747986 12.12025452 C33.49747986 12.12025452 22.93747986 12.12025452 12.05747986 12.12025452 C12.05747986 17.07025452 12.05747986 22.02025452 12.05747986 27.12025452 C22.28747986 27.12025452 32.51747986 27.12025452 43.05747986 27.12025452 C43.05747986 31.08025452 43.05747986 35.04025452 43.05747986 39.12025452 C32.82747986 39.12025452 22.59747986 39.12025452 12.05747986 39.12025452 C12.05747986 44.40025452 12.05747986 49.68025452 12.05747986 55.12025452 C23.60747986 55.12025452 35.15747986 55.12025452 47.05747986 55.12025452 C47.05747986 59.41025452 47.05747986 63.70025452 47.05747986 68.12025452 C40.0974402 68.14489652 33.13742569 68.16308673 26.17735291 68.17518616 C23.80755674 68.18022793 21.43776371 68.18706117 19.06797791 68.19569397 C15.66993947 68.20776642 12.27194201 68.21348423 8.87388611 68.21791077 C7.80723221 68.22307205 6.74057831 68.22823334 5.64160156 68.23355103 C4.66066025 68.23362656 3.67971893 68.23370209 2.66905212 68.23377991 C1.800793 68.23600052 0.93253387 68.23822113 0.03796387 68.24050903 C-1.94252014 68.12025452 -1.94252014 68.12025452 -2.94252014 67.12025452 C-3.0419164 65.07012605 -3.07051567 63.0165406 -3.07191467 60.96400452 C-3.07506683 59.64593811 -3.07821899 58.3278717 -3.08146667 56.96986389 C-3.0796769 55.51999376 -3.07762594 54.07012394 -3.07533264 52.62025452 C-3.07600572 51.1443429 -3.07697577 49.66843138 -3.07823181 48.19252014 C-3.07970862 45.09550422 -3.07755478 41.9985171 -3.07289124 38.90150452 C-3.06719395 34.92316903 -3.07047304 30.944901 -3.0764637 26.96656799 C-3.08006978 23.91777535 -3.07893051 20.86899881 -3.07633591 17.82020569 C-3.07566677 16.35292045 -3.07649461 14.88563377 -3.07881546 13.41835022 C-3.08134271 11.37106859 -3.07681074 9.32378186 -3.07191467 7.27650452 C-3.07111908 6.10925842 -3.07032349 4.94201233 -3.06950378 3.73939514 C-2.89690169 0.17933689 -2.89690169 0.17933689 0 0 Z " fill="#F4F4F4" transform="translate(329.94252014160156,640.8797454833984)"/>
<path d="M0 0 C0.66 0.33 1.32 0.66 2 1 C-3.30111913 5.88832706 -8.5561466 10.61811296 -14.50390625 14.7109375 C-16.29519596 16.03177723 -16.29519596 16.03177723 -17 19 C-8.65363311 24.14880022 -0.2908407 29.26924667 8.09326172 34.35638428 C9.92054132 35.46513337 11.74738496 36.57459858 13.57421875 37.68408203 C21.13168758 42.27182192 28.70460346 46.83220629 36.3125 51.3359375 C39 53 39 53 41.21484375 54.71484375 C43.58600897 56.42187516 45.13700618 56.22023029 48 56 C48.99 56 49.98 56 51 56 C50.34 56.99 49.68 57.98 49 59 C51.62042843 60.67394001 54.24705905 62.3378835 56.875 64 C57.62136719 64.47695313 58.36773438 64.95390625 59.13671875 65.4453125 C59.85214844 65.89648438 60.56757812 66.34765625 61.3046875 66.8125 C61.96452637 67.23144531 62.62436523 67.65039062 63.30419922 68.08203125 C64.97175384 69.15868219 64.97175384 69.15868219 67 69 C67.66 68.34 68.32 67.68 69 67 C69 70 69 70 66.4375 72.671875 C65.29942686 73.70651748 64.15307227 74.73210027 63 75.75 C62.40783691 76.28351074 61.81567383 76.81702148 61.20556641 77.36669922 C59.47760176 78.91946549 57.74003053 80.46078203 56 82 C55.16210938 82.75023437 54.32421875 83.50046875 53.4609375 84.2734375 C50.70555589 86.71922567 48.07147455 88.9523503 45 91 C44.62230469 90.59910156 44.24460937 90.19820313 43.85546875 89.78515625 C40.26533989 86.07731824 36.52338929 82.73535994 32.5 79.5 C29.33602139 76.95506068 26.31646455 74.4247901 23.5 71.5 C19.92684921 67.79953979 15.96083674 64.67369631 11.95703125 61.453125 C8.87350998 58.89506509 5.93037691 56.22967266 3 53.5 C-1.65065942 49.17305411 -6.45508588 45.10869527 -11.40625 41.125 C-13.89797798 39.08358431 -16.29839744 36.97251053 -18.6875 34.8125 C-22.61137351 31.27818072 -26.71472879 28.08259291 -31 25 C-30.29875 24.44570313 -29.5975 23.89140625 -28.875 23.3203125 C-26.41292781 21.33325967 -23.99760177 19.30324909 -21.59643555 17.2434082 C-14.58809323 11.23610454 -7.36742481 5.55872805 0 0 Z " fill="#0B2891" transform="translate(538,329)"/>
<path d="M0 0 C4.40147599 3.75959408 8.77268436 7.54810121 13.10546875 11.38671875 C15.00913491 13.05679802 15.00913491 13.05679802 17.23828125 14.58203125 C17.81964844 15.04996094 18.40101563 15.51789063 19 16 C19 16.66 19 17.32 19 18 C19.59296875 18.26425781 20.1859375 18.52851563 20.796875 18.80078125 C23.08029054 20.04370425 24.47426723 21.30401646 26.25 23.1875 C28.62823921 25.63598256 31.03799459 27.96071053 33.625 30.1875 C37.32714628 33.37826032 40.91832345 36.67572927 44.5 40 C48.62376817 43.82371897 52.77625462 47.59877788 57.02734375 51.28125 C59.45407098 53.3956262 61.85362806 55.53878804 64.25 57.6875 C65.05953125 58.41324219 65.8690625 59.13898438 66.703125 59.88671875 C68.86097864 61.87209089 70.94342272 63.91040428 73 66 C71.92130607 66.96355244 70.83681257 67.92061417 69.75 68.875 C68.84507812 69.67550781 68.84507812 69.67550781 67.921875 70.4921875 C66.01687444 71.98676111 64.19458886 72.99339106 62 74 C61.01 74.495 61.01 74.495 60 75 C59.06800781 74.31035156 58.13601563 73.62070312 57.17578125 72.91015625 C50.96715917 68.32955462 44.74671102 63.78929284 38.375 59.4375 C32.26564113 55.24245676 26.41911032 50.76751062 20.57324219 46.21875 C13.16463662 40.47949503 5.61478378 34.93365648 -2.05249023 29.54589844 C-5.32576687 27.23879961 -8.43199896 24.82032912 -11.5 22.25 C-13.22128956 20.83101388 -13.22128956 20.83101388 -15 20 C-18.4489132 20.42302744 -18.4489132 20.42302744 -21 22 C-17.88777538 18.18752484 -14.82199278 14.74304555 -11.0625 11.5625 C-6.93395173 8.06238201 -3.45434108 4.15600412 0 0 Z " fill="#05083C" transform="translate(449,424)"/>
<path d="M0 0 C5.9171263 3.11375005 10.54462938 7.82679338 13.05859375 14.08984375 C13.92232209 21.47244806 14.19019528 28.38318544 9.5390625 34.48046875 C3.48727123 41.05919699 -2.44527569 44.12689335 -11.31640625 44.58984375 C-18.1674973 44.371293 -23.75350893 41.98733221 -28.828125 37.375 C-34.68993237 30.88869015 -35.40274399 25.02280803 -35.25 16.40625 C-34.62934809 9.73620605 -30.55421881 6.47158528 -25.72265625 2.38671875 C-18.79590071 -2.65644537 -8.06571792 -2.49576663 0 0 Z " fill="#040304" transform="translate(766.94140625,653.91015625)"/>
<path d="M0 0 C4.95 0 9.9 0 15 0 C15 18.15 15 36.3 15 55 C27.21 55 39.42 55 52 55 C51.67 59.29 51.34 63.58 51 68 C34.17 68 17.34 68 0 68 C0 45.56 0 23.12 0 0 Z " fill="#F2F2F2" transform="translate(651,641)"/>
<path d="M0 0 C19.8 0 39.6 0 60 0 C60 3.96 60 7.92 60 12 C52.41 12 44.82 12 37 12 C37 30.15 37 48.3 37 67 C32.38 67 27.76 67 23 67 C23 48.85 23 30.7 23 12 C15.41 12 7.82 12 0 12 C0 8.04 0 4.08 0 0 Z " fill="#F9F9F9" transform="translate(398,641)"/>
<path d="M0 0 C1.093125 0.598125 2.18625 1.19625 3.3125 1.8125 C9.11635482 4.95943066 15.52808352 5.30917745 22 6 C21.01 4.68 20.02 3.36 19 2 C19.33 1.34 19.66 0.68 20 0 C20.42667969 0.46148438 20.85335938 0.92296875 21.29296875 1.3984375 C44.29854774 25.40013435 75.22072199 37.75565304 108 40 C108 40.33 108 40.66 108 41 C91.25243413 41.453391 75.25471792 41.55732907 59 37 C58.29149902 36.80212891 57.58299805 36.60425781 56.85302734 36.40039062 C49.93514757 34.40400972 43.34576089 32.03526779 37.16015625 28.30078125 C34.72300185 26.83320003 32.21512084 25.55515842 29.6875 24.25 C21.64133879 19.86630713 14.419502 14.32739424 7.75 8.0625 C4.04299931 4.69816324 0.90740778 3.78869054 -4 3 C-3 1 -3 1 0 0 Z " fill="#5CD9FA" transform="translate(291,513)"/>
<path d="M0 0 C0.66 0 1.32 0 2 0 C3.67239921 3.95593578 5.33694382 7.9151284 7 11.875 C7.47695313 13.00292969 7.95390625 14.13085938 8.4453125 15.29296875 C9.12207031 16.90751953 9.12207031 16.90751953 9.8125 18.5546875 C10.23144531 19.54968262 10.65039062 20.54467773 11.08203125 21.56982422 C12 24 12 24 12 26 C4.74 26 -2.52 26 -10 26 C-8.0386524 19.46217468 -6.10258645 13.51435515 -3.3125 7.375 C-2.99216797 6.65699219 -2.67183594 5.93898438 -2.34179688 5.19921875 C-1.56660723 3.46371955 -0.78411018 1.73148713 0 0 Z " fill="#0C0C0C" transform="translate(595,657)"/>
<path d="M0 0 C3.8014462 3.36380792 5.98066576 7.06900469 8.3125 11.5 C8.70131348 12.23831055 9.09012695 12.97662109 9.49072266 13.73730469 C17.42947343 29.31584386 23.95428125 47.36346869 23 65 C22.01 65.495 22.01 65.495 21 66 C20.82460693 65.46221924 20.64921387 64.92443848 20.46850586 64.37036133 C17.11117966 54.17657499 13.70419096 44.58590639 8.1875 35.3359375 C7.795625 34.56507813 7.40375 33.79421875 7 33 C7.33 32.34 7.66 31.68 8 31 C9.98 34.3 11.96 37.6 14 41 C15.56010516 34.51956318 14.59562761 31.33364996 11.390625 25.56640625 C10.05598118 23.10331358 9.04272817 20.6833643 8.0625 18.0625 C6.19061706 13.20176694 3.76158514 8.76276223 1.171875 4.25 C0 2 0 2 0 0 Z " fill="#D94DF4" transform="translate(797,343)"/>
<path d="M0 0 C-3.98115952 1.32705317 -5.47328839 0.25949553 -9.3125 -1.3125 C-16.92107687 -4.69005201 -16.92107687 -4.69005201 -25 -6 C-25 -6.66 -25 -7.32 -25 -8 C-25.92941406 -8.06058594 -26.85882813 -8.12117188 -27.81640625 -8.18359375 C-33.92375992 -8.59754369 -39.94512587 -9.08605674 -46 -10 C-62.43527215 -12.22391471 -84.24428155 -11.05343107 -98.8125 -2.3125 C-101.40088936 -0.75946638 -103.03286282 -0.74567396 -106 -1 C-80.51259447 -23.47708205 -26.69902111 -14.28593625 0 0 Z " fill="#49E4FA" transform="translate(376,337)"/>
<path d="M0 0 C1.85625 0.0309375 1.85625 0.0309375 3.75 0.0625 C-0.07655864 2.2160516 -3.70564879 2.70468247 -8.0078125 3.3046875 C-9.11769531 3.67980469 -9.11769531 3.67980469 -10.25 4.0625 C-10.50910156 4.71347656 -10.76820313 5.36445313 -11.03515625 6.03515625 C-12.25 8.0625 -12.25 8.0625 -15.98828125 9.00390625 C-17.5105203 9.22858607 -19.03555346 9.43492896 -20.5625 9.625 C-27.85296879 10.55443756 -27.85296879 10.55443756 -34.25 14.0625 C-34.58 14.7225 -34.91 15.3825 -35.25 16.0625 C-37.10546875 16.5546875 -37.10546875 16.5546875 -39.4375 16.9375 C-43.84112335 17.83209435 -46.58951192 19.39339411 -50.25 22.0625 C-51.74200498 22.88958972 -53.24269708 23.70112945 -54.75 24.5 C-58.69276961 26.64817566 -61.91277226 29.06755202 -65.25 32.0625 C-65.91 31.7325 -66.57 31.4025 -67.25 31.0625 C-51.37608755 17.05835128 -21.89656319 -0.36494272 0 0 Z " fill="#25DFE3" transform="translate(323.25,279.9375)"/>
<path d="M0 0 C0.52464844 0.23074219 1.04929687 0.46148437 1.58984375 0.69921875 C0.75066406 1.11558594 -0.08851563 1.53195312 -0.953125 1.9609375 C-13.73622255 8.36286113 -13.73622255 8.36286113 -25.8359375 15.94140625 C-28.01795472 17.43140283 -30.22012453 18.85819762 -32.453125 20.26953125 C-42.63666071 26.71036568 -42.63666071 26.71036568 -51.89453125 34.39453125 C-53.87470692 36.09911546 -55.90618838 36.99497779 -58.41015625 37.69921875 C-57.00502644 34.33452948 -55.49044435 32.73326019 -52.5078125 30.66796875 C-51.70947998 30.11061035 -50.91114746 29.55325195 -50.08862305 28.97900391 C-49.225354 28.3916748 -48.36208496 27.8043457 -47.47265625 27.19921875 C-46.5803833 26.58481934 -45.68811035 25.97041992 -44.76879883 25.33740234 C-33.13632385 17.38303053 -21.31912261 9.69382772 -8.97265625 2.88671875 C-8.36381592 2.5427002 -7.75497559 2.19868164 -7.12768555 1.84423828 C-4.56562564 0.47688162 -2.93027131 -0.36569026 0 0 Z " fill="#5391E7" transform="translate(598.41015625,292.30078125)"/>
<path d="M0 0 C0.66 0.33 1.32 0.66 2 1 C1.0615625 1.83144531 0.123125 2.66289062 -0.84375 3.51953125 C-2.06288854 4.61675594 -3.28161745 5.7144359 -4.5 6.8125 C-5.12003906 7.35970703 -5.74007812 7.90691406 -6.37890625 8.47070312 C-6.96542969 9.00244141 -7.55195313 9.53417969 -8.15625 10.08203125 C-8.97319336 10.81256714 -8.97319336 10.81256714 -9.80664062 11.55786133 C-11.3187625 13.07323769 -11.3187625 13.07323769 -11 16 C-12.68080893 17.90158068 -14.35393203 19.63322812 -16.1875 21.375 C-16.91163086 22.07882812 -16.91163086 22.07882812 -17.65039062 22.796875 C-18.61627679 23.73553484 -19.5848488 24.67143924 -20.55615234 25.60449219 C-22.73268535 27.70815513 -24.86548922 29.85378258 -27 32 C-26.53251888 27.18134845 -24.1879552 24.15970721 -21.25 20.5 C-20.81945312 19.94441406 -20.38890625 19.38882812 -19.9453125 18.81640625 C-15.8659926 13.62565488 -11.24181886 9.1353363 -6.3125 4.75 C-5.54550781 4.06421875 -4.77851563 3.3784375 -3.98828125 2.671875 C-2 1 -2 1 0 0 Z " fill="#1DB2F0" transform="translate(254,344)"/>
<path d="M0 0 C25.4635546 -0.69880982 47.11693552 1.77833953 71 11 C71 11.66 71 12.32 71 13 C69.60396057 12.58402437 68.20818801 12.16715317 66.8125 11.75 C65.43578125 11.34007812 65.43578125 11.34007812 64.03125 10.921875 C62.00452744 10.30550061 59.98355142 9.66991618 57.96875 9.015625 C47.23683175 5.56228497 36.34916196 2.54603352 25 3 C24.67 2.67 24.34 2.34 24 2 C22.22130274 1.84235595 20.43681524 1.74899323 18.65234375 1.68359375 C17.57275391 1.64169922 16.49316406 1.59980469 15.38085938 1.55664062 C13.67639648 1.49766602 13.67639648 1.49766602 11.9375 1.4375 C10.79732422 1.39431641 9.65714844 1.35113281 8.48242188 1.30664062 C5.65507805 1.20017161 2.82764262 1.09815793 0 1 C0 0.67 0 0.34 0 0 Z " fill="#73E3E4" transform="translate(344,277)"/>
<path d="M0 0 C0.66 0.33 1.32 0.66 2 1 C-13.4325495 10.75185644 -13.4325495 10.75185644 -19.25 14.125 C-19.89453125 14.49882813 -20.5390625 14.87265625 -21.203125 15.2578125 C-23 16 -23 16 -27 16 C-27 15.34 -27 14.68 -27 14 C-29.31 14.33 -31.62 14.66 -34 15 C-33 13 -33 13 -29.38671875 11.66796875 C-27.82216639 11.16863277 -26.25561889 10.67552013 -24.6875 10.1875 C-11.83842268 6.20946778 -11.83842268 6.20946778 0 0 Z " fill="#4A70EB" transform="translate(459,536)"/>
<path d="M0 0 C0.33 0 0.66 0 1 0 C2.12246085 7.02211508 2.18615278 13.97614805 2.18530273 21.07910156 C2.18747297 23.09982914 2.20563516 25.11999468 2.22460938 27.140625 C2.23757284 35.97306741 1.49674675 44.30106052 0 53 C-0.66 52.67 -1.32 52.34 -2 52 C-1.83773926 50.9886499 -1.67547852 49.9772998 -1.50830078 48.93530273 C-1.03191454 45.24708476 -0.87077132 41.75029985 -0.8671875 38.03515625 C-0.86589844 36.74029297 -0.86460937 35.44542969 -0.86328125 34.11132812 C-0.86537598 33.44560791 -0.8674707 32.7798877 -0.86962891 32.09399414 C-0.8749774 30.07104973 -0.86966663 28.04832819 -0.86328125 26.02539062 C-0.84288103 18.14432453 -0.84288103 18.14432453 -1.56640625 10.30859375 C-2.11510821 6.12165175 -1.38202669 3.902193 0 0 Z " fill="#76189A" transform="translate(820,402)"/>
<path d="M0 0 C2.3461 3.51915 3.17535171 6.94461418 4.125 11 C4.30385742 11.75659912 4.48271484 12.51319824 4.66699219 13.29272461 C5.99562523 19.24563334 6.47438844 24.89883755 6 31 C5.34 31.33 4.68 31.66 4 32 C2.35 26.72 0.7 21.44 -1 16 C-0.01 15.01 0.98 14.02 2 13 C1.690625 12.2575 1.38125 11.515 1.0625 10.75 C-0.51138309 6.67642023 -1.36384764 4.24308154 0 0 Z " fill="#B12FCD" transform="translate(814,377)"/>
<path d="M0 0 C2.63974945 1.27242588 5.09631441 2.6483233 7.53125 4.27734375 C8.49998047 4.92413086 8.49998047 4.92413086 9.48828125 5.58398438 C10.15214844 6.03064453 10.81601562 6.47730469 11.5 6.9375 C12.16386719 7.38029297 12.82773437 7.82308594 13.51171875 8.27929688 C16.73930022 10.44068127 19.92503627 12.62317854 23 15 C22.34 15 21.68 15 21 15 C21.99 16.98 22.98 18.96 24 21 C20.01078084 19.32083962 16.93449151 16.60366656 13.6875 13.8125 C13.11298096 13.32217285 12.53846191 12.8318457 11.9465332 12.32666016 C7.76512963 8.72841969 3.77013964 5.03317263 0 1 C0 0.67 0 0.34 0 0 Z " fill="#0D0450" transform="translate(614,448)"/>
<path d="M0 0 C15.83669013 -1.00728064 38.48406695 2.4023381 51 13 C47.34719323 12.35927259 44.03179413 11.36656091 40.5625 10.0625 C39.60472656 9.70800781 38.64695312 9.35351562 37.66015625 8.98828125 C36.78230469 8.66214844 35.90445313 8.33601563 35 8 C30.59250165 6.40730839 30.59250165 6.40730839 26 6 C26 5.34 26 4.68 26 4 C25.07058594 3.93941406 24.14117187 3.87882812 23.18359375 3.81640625 C15.3277995 3.28394887 7.70829255 2.63509236 0 1 C0 0.67 0 0.34 0 0 Z " fill="#87F7FC" transform="translate(325,325)"/>
<path d="M0 0 C-0.33 0.66 -0.66 1.32 -1 2 C-3.66736723 2.63956192 -6.30675158 3.18281023 -9 3.6875 C-18.57309802 5.62735506 -27.10362681 9.05253823 -36 13 C-37.66303465 13.67567594 -39.32803427 14.34673679 -41 15 C-32.07669608 5.0947057 -13.15819552 -0.37594844 0 0 Z " fill="#082D68" transform="translate(294,338)"/>
<path d="M0 0 C-2 3 -2 3 -3.953125 3.58984375 C-4.71109375 3.70457031 -5.4690625 3.81929688 -6.25 3.9375 C-10.64808065 4.7919042 -13.34801738 6.337096 -17 9 C-18.49200498 9.82708972 -19.99269708 10.63862945 -21.5 11.4375 C-25.44276961 13.58567566 -28.66277226 16.00505202 -32 19 C-32.66 18.67 -33.32 18.34 -34 18 C-26.03280408 10.97124783 -17.34223589 5.95962817 -8 1 C-7.22914063 0.5771875 -6.45828125 0.154375 -5.6640625 -0.28125 C-3.45863858 -1.23382747 -2.21409478 -0.79074814 0 0 Z " fill="#11CDE2" transform="translate(290,293)"/>
<path d="M0 0 C3.97888024 3.46343439 6.11355086 7.449205 8.5 12.0625 C8.89364746 12.8160376 9.28729492 13.5695752 9.69287109 14.34594727 C15.57330819 25.7975178 15.57330819 25.7975178 17 32 C16.67 32.66 16.34 33.32 16 34 C12.56651222 27.97995142 9.52951575 22.04414334 7.078125 15.5625 C5.41931196 11.61981394 3.29870019 7.95615083 1.171875 4.25 C0 2 0 2 0 0 Z " fill="#C053DF" transform="translate(797,343)"/>
<path d="M0 0 C3.07058821 0.3826709 6.14239589 0.63752964 9.2265625 0.88671875 C10.25007813 0.97050781 11.27359375 1.05429687 12.328125 1.140625 C13.07835937 1.20121094 13.82859375 1.26179687 14.6015625 1.32421875 C14.6015625 1.65421875 14.6015625 1.98421875 14.6015625 2.32421875 C10.56307934 2.34903219 6.52462603 2.36713235 2.48608398 2.37915039 C1.11368028 2.38416329 -0.25871812 2.39097533 -1.63110352 2.3996582 C-3.60951401 2.41185732 -5.5879643 2.41694123 -7.56640625 2.421875 C-9.34954224 2.42973022 -9.34954224 2.42973022 -11.16870117 2.43774414 C-14.04581237 2.33661354 -16.60517163 1.98972068 -19.3984375 1.32421875 C-19.3984375 0.99421875 -19.3984375 0.66421875 -19.3984375 0.32421875 C-12.81297129 -0.41127146 -6.58508091 -0.82581634 0 0 Z " fill="#47A4F5" transform="translate(384.3984375,551.67578125)"/>
<path d="M0 0 C0.7425 0.66 1.485 1.32 2.25 2 C6.94531961 5.22094389 12.55789549 4.3170158 18 4 C18 4.33 18 4.66 18 5 C14.7 5.33 11.4 5.66 8 6 C11.80411834 9.91939465 15.81576108 13.49102731 20 17 C13.37202719 17 6.94298398 9.02681828 2.3125 4.5625 C0 2 0 2 0 0 Z " fill="#041D55" transform="translate(310,511)"/>
<path d="M0 0 C0.66 0.33 1.32 0.66 2 1 C-3.27664705 5.8657606 -8.5221506 10.58724489 -14.40625 14.7109375 C-16.277721 16.09364588 -16.277721 16.09364588 -18 19 C-18.99 19 -19.98 19 -21 19 C-19.43131275 14.47535107 -15.8662173 12.26941385 -12.1875 9.5 C-10.9517375 8.55219469 -9.71605896 7.6042799 -8.48046875 6.65625 C-7.89056152 6.20765625 -7.3006543 5.7590625 -6.69287109 5.296875 C-4.43367896 3.56615268 -2.21396764 1.78804243 0 0 Z " fill="#1A60B4" transform="translate(538,329)"/>
<path d="M0 0 C0.66 0.33 1.32 0.66 2 1 C3.14242743 5.68395246 3.08252495 10.21355271 3 15 C2.34 14.34 1.68 13.68 1 13 C0.01 13.66 -0.98 14.32 -2 15 C-1.85879286 13.06215735 -1.71187127 11.12473045 -1.5625 9.1875 C-1.48128906 8.10855469 -1.40007813 7.02960938 -1.31640625 5.91796875 C-1 3 -1 3 0 0 Z " fill="#41118B" transform="translate(817,410)"/>
<path d="M0 0 C0.66 0.33 1.32 0.66 2 1 C1.0615625 1.83144531 0.123125 2.66289062 -0.84375 3.51953125 C-2.06288854 4.61675594 -3.28161745 5.7144359 -4.5 6.8125 C-5.12003906 7.35970703 -5.74007812 7.90691406 -6.37890625 8.47070312 C-7.25869141 9.26831055 -7.25869141 9.26831055 -8.15625 10.08203125 C-8.70087891 10.56905518 -9.24550781 11.0560791 -9.80664062 11.55786133 C-11.3187625 13.07323769 -11.3187625 13.07323769 -11 16 C-11.99 16.33 -12.98 16.66 -14 17 C-13.76014592 13.00438199 -13.26599297 11.29929546 -10.56640625 8.26171875 C-9.57511719 7.41222656 -8.58382812 6.56273437 -7.5625 5.6875 C-6.07943359 4.39392578 -6.07943359 4.39392578 -4.56640625 3.07421875 C-2 1 -2 1 0 0 Z " fill="#1FC3F4" transform="translate(254,344)"/>
<path d="M0 0 C0 0.99 0 1.98 0 3 C-1.94140625 4.61328125 -1.94140625 4.61328125 -4.5625 6.3125 C-7.83508475 8.49422317 -10.89270733 10.67693493 -13.8125 13.3125 C-16.37506809 15.58966359 -18.67180966 16.99145747 -22 18 C-20.53216017 14.333912 -18.66121222 12.75576531 -15.4296875 10.546875 C-14.53378906 9.928125 -13.63789062 9.309375 -12.71484375 8.671875 C-11.77769531 8.03765625 -10.84054687 7.4034375 -9.875 6.75 C-8.45767578 5.77546875 -8.45767578 5.77546875 -7.01171875 4.78125 C-4.67977778 3.17951277 -2.34252636 1.58619782 0 0 Z " fill="#408BE1" transform="translate(562,312)"/>
<path d="M0 0 C4.0018325 -0.04978833 8.00354265 -0.08590164 12.00561523 -0.10986328 C13.36437118 -0.11986243 14.72310594 -0.13346624 16.08178711 -0.15087891 C18.04531296 -0.17539594 20.00900201 -0.18546962 21.97265625 -0.1953125 C23.15093994 -0.20578613 24.32922363 -0.21625977 25.54321289 -0.22705078 C29.35125693 0.02307147 32.38113496 0.83210274 36 2 C32.11651516 3.29449495 29.09302664 3.13203312 25 3 C24.67 2.67 24.34 2.34 24 2 C22.22130274 1.84235595 20.43681524 1.74899323 18.65234375 1.68359375 C17.57275391 1.64169922 16.49316406 1.59980469 15.38085938 1.55664062 C13.67639648 1.49766602 13.67639648 1.49766602 11.9375 1.4375 C10.79732422 1.39431641 9.65714844 1.35113281 8.48242188 1.30664062 C5.65507805 1.20017161 2.82764262 1.09815793 0 1 C0 0.67 0 0.34 0 0 Z " fill="#5FF0EE" transform="translate(344,277)"/>
<path d="M0 0 C0.96099609 0.00902344 1.92199219 0.01804687 2.91210938 0.02734375 C5.25417805 0.05064792 7.59569792 0.08335942 9.9375 0.125 C9.9375 0.455 9.9375 0.785 9.9375 1.125 C9.09940796 1.20802368 9.09940796 1.20802368 8.24438477 1.29272461 C5.66286879 1.54877135 3.08143436 1.8056318 0.5 2.0625 C-0.37849609 2.14951172 -1.25699219 2.23652344 -2.16210938 2.32617188 C-7.8002215 2.8879026 -13.43224661 3.48923385 -19.0625 4.125 C-19.3925 3.465 -19.7225 2.805 -20.0625 2.125 C-13.22591143 0.34398103 -7.04638717 -0.12749204 0 0 Z " fill="#5AEFFB" transform="translate(320.0625,323.875)"/>
<path d="M0 0 C0.33 0.66 0.66 1.32 1 2 C-2.36851599 7.3244285 -5.89786771 10.74334013 -11.01171875 14.421875 C-13.23600374 16.02156787 -13.23600374 16.02156787 -15 19 C-15.99 18.67 -16.98 18.34 -18 18 C-15.49946104 15.39527192 -12.87210241 13.02411585 -10.125 10.6875 C-6.33084402 7.40491561 -3.17028432 3.88359829 0 0 Z " fill="#BB40E1" transform="translate(751,470)"/>
<path d="M0 0 C5.09882455 1.5280389 9.65665659 3.71036856 14.375 6.125 C15.11105469 6.49753906 15.84710937 6.87007813 16.60546875 7.25390625 C18.40550358 8.1656122 20.20301402 9.08229932 22 10 C18.29218328 11.23593891 17.32489747 10.5678132 13.8125 9.0625 C12.91144531 8.68222656 12.01039063 8.30195313 11.08203125 7.91015625 C10.39496094 7.60980469 9.70789063 7.30945313 9 7 C9 6.34 9 5.68 9 5 C8.071875 4.731875 7.14375 4.46375 6.1875 4.1875 C3.23759634 3.08851629 1.94384814 2.37581439 0 0 Z " fill="#370F9D" transform="translate(666,489)"/>
<path d="M0 0 C0.66 0.33 1.32 0.66 2 1 C1.85957123 2.64630328 1.71250671 4.29204179 1.5625 5.9375 C1.48128906 6.85402344 1.40007812 7.77054687 1.31640625 8.71484375 C1 11 1 11 0 12 C-0.23527773 14.34987262 -0.41386417 16.70556039 -0.5625 19.0625 C-0.64628906 20.35285156 -0.73007813 21.64320313 -0.81640625 22.97265625 C-0.87699219 23.97167969 -0.93757812 24.97070312 -1 26 C-1.33 26 -1.66 26 -2 26 C-2 19.07 -2 12.14 -2 5 C-1.34 5 -0.68 5 0 5 C0 3.35 0 1.7 0 0 Z " fill="#0259CB" transform="translate(212,410)"/>
<path d="M0 0 C0.66 0 1.32 0 2 0 C2 1.65 2 3.3 2 5 C2.99 5 3.98 5 5 5 C6.4783226 7.95664519 6.06032783 10.74229737 6 14 C5.01 14.495 5.01 14.495 4 15 C3.32779649 13.06441401 2.66241923 11.12645628 2 9.1875 C1.62875 8.10855469 1.2575 7.02960938 0.875 5.91796875 C0 3 0 3 0 0 Z " fill="#C036E2" transform="translate(814,394)"/>
<path d="M0 0 C5.94 1.485 5.94 1.485 12 3 C12 3.33 12 3.66 12 4 C6.06 4 0.12 4 -6 4 C-6 3.67 -6 3.34 -6 3 C-4.35 3 -2.7 3 -1 3 C-0.67 2.01 -0.34 1.02 0 0 Z " fill="#53C2F9" transform="translate(365,548)"/>
<path d="M0 0 C1.44857268 1.21275852 2.89689745 2.42581484 4.34375 3.640625 C5.75862239 4.80188818 7.21908532 5.90722629 8.6875 7 C11.14117012 9.12209308 12.49400895 11.14654328 14 14 C10.10082032 12.38462556 7.28706228 9.72075127 4.25 6.875 C3.74339844 6.40707031 3.23679687 5.93914062 2.71484375 5.45703125 C1.47280859 4.30873459 0.23588506 3.15491328 -1 2 C-0.67 1.34 -0.34 0.68 0 0 Z " fill="#7BD9E9" transform="translate(407,384)"/>
<path d="M0 0 C0.33 0 0.66 0 1 0 C1 6.6 1 13.2 1 20 C0.67 20 0.34 20 0 20 C-2.66514806 6.3667426 -2.66514806 6.3667426 0 0 Z " fill="#AA26BE" transform="translate(820,402)"/>
<path d="M0 0 C0.66 0.33 1.32 0.66 2 1 C-0.12003997 2.83935862 -2.24557227 4.67156733 -4.375 6.5 C-5.27992188 7.28697266 -5.27992188 7.28697266 -6.203125 8.08984375 C-10.7734375 12 -10.7734375 12 -13 12 C-11.80603441 8.41810322 -10.60092839 7.66703858 -7.625 5.4375 C-6.83351563 4.83808594 -6.04203125 4.23867188 -5.2265625 3.62109375 C-3.51312298 2.37358954 -1.76350341 1.17566894 0 0 Z " fill="#6556DF" transform="translate(629,378)"/>
<path d="M0 0 C-2.28855702 0.86343731 -4.5801928 1.7159811 -6.875 2.5625 C-7.52597656 2.80935547 -8.17695312 3.05621094 -8.84765625 3.31054688 C-10.54497665 3.93173115 -12.27156776 4.47152252 -14 5 C-14.66 4.67 -15.32 4.34 -16 4 C-6.47949173 -1.78697561 -6.47949173 -1.78697561 0 0 Z " fill="#4913C0" transform="translate(738,561)"/>
<path d="M0 0 C0.99 0.33 1.98 0.66 3 1 C-2.445 5.455 -2.445 5.455 -8 10 C-8.66 9.67 -9.32 9.34 -10 9 C-7.85177953 5.7776693 -6.2725249 4.91562433 -3 3 C-1.24850835 1.41754725 -1.24850835 1.41754725 0 0 Z " fill="#420FB7" transform="translate(769,539)"/>
<path d="M0 0 C1.625 1.6875 1.625 1.6875 3 4 C2.1875 6.75 2.1875 6.75 1 9 C0.01 8.67 -0.98 8.34 -2 8 C-1.125 1.125 -1.125 1.125 0 0 Z " fill="#D037F1" transform="translate(814,384)"/>
<path d="M0 0 C1.14926266 0.95421808 2.29430541 1.91352045 3.4375 2.875 C4.39462891 3.67550781 4.39462891 3.67550781 5.37109375 4.4921875 C7 6 7 6 8 8 C4.04 7.67 0.08 7.34 -4 7 C-4 6.67 -4 6.34 -4 6 C-1.69 6 0.62 6 3 6 C2.2575 5.071875 2.2575 5.071875 1.5 4.125 C0 2 0 2 0 0 Z " fill="#8CECF6" transform="translate(310,513)"/>
<path d="M0 0 C0 0.66 0 1.32 0 2 C-1.62324086 2.22162329 -3.248721 2.42689803 -4.875 2.625 C-6.23238281 2.79902344 -6.23238281 2.79902344 -7.6171875 2.9765625 C-8.40351563 2.98429687 -9.18984375 2.99203125 -10 3 C-10.66 2.34 -11.32 1.68 -12 1 C-8.0186217 -0.3271261 -4.14954773 -0.06915913 0 0 Z " fill="#3AF7F6" transform="translate(340,278)"/>
<path d="M0 0 C0 3 0 3 -1.6875 5.0625 C-4.06073778 7.05088841 -6.08060173 8.02686724 -9 9 C-7.48328036 4.44984107 -3.83108947 2.49942736 0 0 Z " fill="#2E7AD0" transform="translate(549,321)"/>
<path d="M0 0 C0.66 0.33 1.32 0.66 2 1 C-1.3 3.31 -4.6 5.62 -8 8 C-8.66 7.67 -9.32 7.34 -10 7 C-3.23076923 1.15384615 -3.23076923 1.15384615 0 0 Z " fill="#313EBF" transform="translate(471,528)"/>
<path d="M0 0 C0.66 0.66 1.32 1.32 2 2 C-1.465 4.97 -1.465 4.97 -5 8 C-6.24546405 5.50907189 -5.7767578 4.58919267 -5 2 C-3.68 2 -2.36 2 -1 2 C-0.67 1.34 -0.34 0.68 0 0 Z " fill="#2939BB" transform="translate(606,396)"/>
<path d="M0 0 C3.81684226 1.55500981 6.19195732 4.03595495 9 7 C5.30581799 7 3.22163822 5.71820705 0 4 C0 2.66666667 0 1.33333333 0 0 Z " fill="#051940" transform="translate(404,385)"/>
<path d="M0 0 C2.97 0.33 5.94 0.66 9 1 C9 1.33 9 1.66 9 2 C6.69 2.33 4.38 2.66 2 3 C1.67 4.98 1.34 6.96 1 9 C0.67 9 0.34 9 0 9 C0 6.03 0 3.06 0 0 Z " fill="#0A0A0C" transform="translate(342,654)"/>
<path d="M0 0 C0.70769531 0.38285156 1.41539062 0.76570312 2.14453125 1.16015625 C2.85996094 1.54042969 3.57539063 1.92070313 4.3125 2.3125 C4.85519531 2.61285156 5.39789063 2.91320312 5.95703125 3.22265625 C1.43610157 4.67872144 -1.55945671 3.49298466 -6.04296875 2.22265625 C-4.5894256 -0.68443006 -3.00921838 -1.14499896 0 0 Z " fill="#72EBFB" transform="translate(293.04296875,513.77734375)"/>
<path d="M0 0 C3.26008643 3.16952847 6.22237877 6.39937989 9 10 C5.78956118 8.61811547 3.95063635 7.07578097 1.75 4.375 C1.22921875 3.74335938 0.7084375 3.11171875 0.171875 2.4609375 C-0.21484375 1.97882813 -0.6015625 1.49671875 -1 1 C-0.67 0.67 -0.34 0.34 0 0 Z " fill="#3C90E1" transform="translate(472,442)"/>
<path d="M0 0 C-3.92592596 2.05643741 -7.76570244 3.68938409 -12 5 C-12 4.34 -12 3.68 -12 3 C-10.75823305 2.29773859 -9.50614401 1.61370891 -8.25 0.9375 C-7.20585938 0.36322266 -7.20585938 0.36322266 -6.140625 -0.22265625 C-3.63859372 -1.1312406 -2.4667645 -0.88336837 0 0 Z " fill="#6396EB" transform="translate(600,293)"/>
<path d="M0 0 C3.59391114 1.33488128 6.75490696 2.96022723 10 5 C7.07171074 5 4.79597286 4.86029934 2 4 C0.6875 1.9375 0.6875 1.9375 0 0 Z " fill="#9CF5FC" transform="translate(386,343)"/>
<path d="M0 0 C2.48046875 0.6796875 2.48046875 0.6796875 5.1875 1.875 C6.08855469 2.26429688 6.98960937 2.65359375 7.91796875 3.0546875 C8.94857422 3.52261719 8.94857422 3.52261719 10 4 C6.57056481 5.18771723 4.62215325 4.80226223 1.25 3.5625 C0.45078125 3.27503906 -0.3484375 2.98757813 -1.171875 2.69140625 C-1.77515625 2.46324219 -2.3784375 2.23507812 -3 2 C-2.01 1.34 -1.02 0.68 0 0 Z " fill="#44B4FA" transform="translate(344,545)"/>
<path d="M0 0 C0.66 0 1.32 0 2 0 C0.75023244 3.65316671 0.32901247 4.78065836 -3 7 C-3.66 6.34 -4.32 5.68 -5 5 C-4.01 4.67 -3.02 4.34 -2 4 C-0.79117904 1.99983534 -0.79117904 1.99983534 0 0 Z " fill="#C84EED" transform="translate(797,465)"/>
<path d="M0 0 C1.32 0.66 2.64 1.32 4 2 C3.67 3.32 3.34 4.64 3 6 C1.68 5.01 0.36 4.02 -1 3 C-0.67 2.01 -0.34 1.02 0 0 Z " fill="#130759" transform="translate(623,454)"/>
<path d="M0 0 C3.76488042 1.72154788 6.15063897 3.99234114 9 7 C6 7 6 7 4.39453125 5.46875 C3.87246094 4.8190625 3.35039063 4.169375 2.8125 3.5 C2.28269531 2.8503125 1.75289062 2.200625 1.20703125 1.53125 C0.80871094 1.0259375 0.41039062 0.520625 0 0 Z " fill="#03197F" transform="translate(576,412)"/>
<path d="M0 0 C0.66 0.33 1.32 0.66 2 1 C-1.465 3.97 -1.465 3.97 -5 7 C-5.33 6.34 -5.66 5.68 -6 5 C-4.06745228 2.9754262 -2.36841312 1.57894208 0 0 Z " fill="#4D4AD5" transform="translate(614,390)"/>
<path d="M0 0 C2.29013653 3.4352048 2.17842973 4.985331 2 9 C1.01 8.67 0.02 8.34 -1 8 C-0.67 5.36 -0.34 2.72 0 0 Z " fill="#B638D8" transform="translate(814,377)"/>
<path d="M0 0 C0 3 0 3 -2.5 5.6875 C-3.325 6.450625 -4.15 7.21375 -5 8 C-5 6.02 -5 4.04 -5 2 C-4.360625 1.855625 -3.72125 1.71125 -3.0625 1.5625 C-1.02454854 1.18992819 -1.02454854 1.18992819 0 0 Z " fill="#0655A8" transform="translate(230,373)"/>
<path d="M0 0 C-0.99 1.485 -0.99 1.485 -2 3 C-3.32 3 -4.64 3 -6 3 C-6 2.01 -6 1.02 -6 0 C-3.50907189 -1.24546405 -2.58919267 -0.7767578 0 0 Z " fill="#12E7F3" transform="translate(290,293)"/>
</svg>
